<?xml version="1.0" encoding="utf-8"?>
<svg version="1.1" xmlns="http://www.w3.org/2000/svg" xmlns:xlink="http://www.w3.org/1999/xlink" height="1024" width="1024">
  <defs>
    <rect id="rect-1" opacity="1" x="0" y="0" width="1024" height="1024"/>
    <rect id="rect-2" opacity="1" x="128" y="128" width="768" height="768"/>
    <path id="path-3" opacity="1" fill-rule="evenodd" d="M896 512C896 723.9353694056961 723.9353694056961 896 512 896C300.06463059430405 896 128.00000000000006 723.9353694056961 128 512.0000000000001C128 300.06463059430405 300.06463059430394 128.00000000000006 511.99999999999994 128C723.9353694056961 128 896 300.064630594304 896 512Z"/>
    <filter id="filter-4" filterUnits="userSpaceOnUse" x="-50%" y="-50%" width="200%" height="200%">
      <feOffset in="SourceAlpha" result="shadow-1-feOffset-shadow" dx="0" dy="0"/>
      <feGaussianBlur in="shadow-1-feOffset-shadow" result="shadow-1-feGaussianBlur-shadow" stdDeviation="6"/>
      <feColorMatrix in="shadow-1-feGaussianBlur-shadow" result="shadow-1-feColorMatrix-shadow" type="matrix" values="0 0 0 0 0  0 0 0 0 0  0 0 0 0 0  0 0 0 1 0"/>
    </filter>
    <path id="path-5" opacity="1" fill-rule="evenodd" d="M895.9999999999999 512C895.9999999999999 723.9353694056961 723.9353694056961 896 511.99999999999994 896C300.0646305943038 896 128 723.94 128 510.58424708877305C128 301.1684941775461 640 609.724886131681 640 512C640 300.064630594304 300.06463059430394 128.00000000000006 511.9999999999999 128C723.9353694056961 128 895.9999999999999 300.064630594304 895.9999999999999 512Z"/>
    <filter id="filter-6" filterUnits="userSpaceOnUse" x="-50%" y="-50%" width="200%" height="200%">
      <feOffset in="SourceAlpha" result="shadow-1-feOffset-shadow" dx="0" dy="0"/>
      <feGaussianBlur in="shadow-1-feOffset-shadow" result="shadow-1-feGaussianBlur-shadow" stdDeviation="6"/>
      <feColorMatrix in="shadow-1-feGaussianBlur-shadow" result="shadow-1-feColorMatrix-shadow" type="matrix" values="0 0 0 0 0.0392156862745098  0 0 0 0 0.5411764705882353  0 0 0 0 0.9607843137254902  0 0 0 1 0"/>
    </filter>
    <path id="path-7" opacity="1" fill-rule="evenodd" d="M896 512C896 723.9353694056961 723.9353694056961 896 512 896C300.06463059430405 896 640 723.9353694056961 640 512C640 300.064630594304 300.06463059430394 128.00000000000006 512 128C723.9353694056961 128 896 300.064630594304 896 512Z"/>
    <filter id="filter-8" filterUnits="userSpaceOnUse" x="-50%" y="-50%" width="200%" height="200%">
      <feOffset in="SourceAlpha" result="shadow-1-feOffset-shadow" dx="0" dy="0"/>
      <feGaussianBlur in="shadow-1-feOffset-shadow" result="shadow-1-feGaussianBlur-shadow" stdDeviation="6"/>
      <feColorMatrix in="shadow-1-feGaussianBlur-shadow" result="shadow-1-feColorMatrix-shadow" type="matrix" values="0 0 0 0 0.00784313725490196  0 0 0 0 0.8666666666666667  0 0 0 0 0.06274509803921569  0 0 0 1 0"/>
    </filter>
  </defs>
  <g>
    <g opacity="1">
      <g opacity="1">
        <use xlink:href="#path-3" fill="black" filter="url(#filter-4)" stroke="black" stroke-opacity="0" stroke-width="0"/>
        <use xlink:href="#path-3" fill="rgb(245,199,10)" fill-opacity="1"/>
      </g>
      <g opacity="0.78">
        <use xlink:href="#path-5" fill="black" filter="url(#filter-6)" stroke="black" stroke-opacity="0" stroke-width="0"/>
        <use xlink:href="#path-5" fill="rgb(10,138,245)" fill-opacity="1"/>
      </g>
      <g opacity="1">
        <use xlink:href="#path-7" fill="black" filter="url(#filter-8)" stroke="black" stroke-opacity="0" stroke-width="0"/>
        <use xlink:href="#path-7" fill="rgb(2,221,16)" fill-opacity="1"/>
      </g>
    </g>
  </g>
</svg>